PathFileType	4	(X/Y/Z)	/Users/visionmauri/Downloads/Videos/OAW11-top_Sports2D/OAW11-top_Sports2D_m_person00.trc
DataRate	CameraRate	NumFrames	NumMarkers	Units	OrigDataRate	OrigDataStartFrame	OrigNumFrames
30.0	30.0	7	22	m	30.0	0	2166
Frame#	Time	Hip			RHip			RKnee			RAnkle			RBigToe			RSmallToe			RHeel			LHip			LKnee			LAnkle			LBigToe			LSmallToe			LHeel			Neck			Head			Nose			RShoulder			RElbow			RWrist			LShoulder			LElbow			LWrist			
		X1	Y1	Z1	X2	Y2	Z2	X3	Y3	Z3	X4	Y4	Z4	X5	Y5	Z5	X6	Y6	Z6	X7	Y7	Z7	X8	Y8	Z8	X9	Y9	Z9	X10	Y10	Z10	X11	Y11	Z11	X12	Y12	Z12	X13	Y13	Z13	X14	Y14	Z14	X15	Y15	Z15	X16	Y16	Z16	X17	Y17	Z17	X18	Y18	Z18	X19	Y19	Z19	X20	Y20	Z20	X21	Y21	Z21	X22	Y22	Z22
0	0.0	1.1219176875582966	0.6806422803894774	0.0301	1.0917702115003276	0.6691262213994966	0.0301	1.1587644379218955	0.5570861398465069	0.129	1.2142447165277523	0.4626644197937673	0.023	1.2388961420367561	0.42404385957946894	0.2179	1.2197457247896941	0.41519400116392513	0.1804	1.232249438859034	0.4508422947376274	-0.0119	1.147994135693747	0.704555231053457	0.0301	1.2170812468133783	0.5938341329747212	0.129	1.2785461587576346	0.5031838767465131	0.023	1.2996566134756566	0.4586615280010741	0.2179	1.3123824991038884	0.46988454099566507	0.1804	1.2851743359820615	0.48607074817348844	-0.0119	1.036018681262055	0.8400306019525742	0.0008	1.0094232322305092	0.8925915477760983	0.0655	1.0374365759281958	0.8372842303693315	0.1076	0.9987890558365639	0.803419391153138	-0.01275	1.0363728902285485	0.702128053170326	0.0702	1.0701887293064427	0.6203961458839735	0.1076	1.0848318383820847	0.8576388478904272	-0.01275	1.163381339368142	0.778436342394609	0.0702	1.2095100980988818	0.7026218324018024	0.1076
1	0.033348729792147806	1.122089284375453	0.6804469924067441	0.0301	1.0918452074328562	0.6683617599521334	0.0301	1.1585878967811063	0.5566823190291694	0.129	1.2142070382177217	0.46307771858132546	0.023	1.2387462686940018	0.42386971981790966	0.2179	1.2197903450540717	0.41570548179066474	0.1804	1.2316361028328855	0.4510749241819895	-0.0119	1.1477216661861804	0.7028729463248001	0.0301	1.21620524231766	0.5930922494441095	0.129	1.2778031423276177	0.503004119933584	0.023	1.3003958331799899	0.4584292229296939	0.2179	1.312608421663791	0.4693217762989856	0.1804	1.2852815121806416	0.4866968536110897	-0.0119	1.0350890965287338	0.8392588489978804	0.0008	1.0078283127952448	0.8907085183305685	0.0655	1.0363475950413013	0.8358690530160542	0.1076	0.9981692458958473	0.8028889907303671	-0.01275	1.0354697057349829	0.7019010219298677	0.0702	1.069338525822907	0.6204035510744956	0.1076	1.0847036908240189	0.8573895015073988	-0.01275	1.1627404386146598	0.7776420941404041	0.0702	1.2089762344081152	0.7016735063662819	0.1076
2	0.06669745958429561	1.1217960266761955	0.6804584399050231	0.0301	1.0913973148182372	0.667781740081993	0.0301	1.1581270412319071	0.5563564884667888	0.129	1.2142023778692044	0.4637893086704949	0.023	1.2380379970155087	0.4232276341435866	0.2179	1.2199289544347203	0.4162949370498861	0.1804	1.2311514839670452	0.4513582612318817	-0.0119	1.146936974675118	0.7010594873675944	0.0301	1.215523735975879	0.5924652878346373	0.129	1.2770867850511907	0.5025943807103419	0.023	1.3013589012562388	0.45815593723100223	0.2179	1.3130185958111253	0.46866310589499255	0.1804	1.285323005061788	0.487478059365416	-0.0119	1.0343811101977574	0.8381794141282617	0.0008	1.0066756580963205	0.8877042693103236	0.0655	1.035410445962905	0.8342260972693644	0.1076	0.9975037858280409	0.80232574823642	-0.01275	1.0342787313291317	0.7019459072842771	0.0702	1.0680900987064308	0.6204132629134133	0.1076	1.0847087451634334	0.8571763321194299	-0.01275	1.1615994430632441	0.7766662232345475	0.0702	1.2082160797776833	0.7000979804835757	0.1076
3	0.10004618937644341	1.120770851123043	0.681014405176983	0.0301	1.0901863587040104	0.667799927413153	0.0301	1.1572993581295978	0.5563370850571144	0.129	1.214224353385507	0.4646023517680149	0.023	1.2368009080235085	0.4220767212863169	0.2179	1.2200405750929493	0.41674699321969116	0.1804	1.2310367535806304	0.4515664869861983	-0.0119	1.1455752815856435	0.6998976196616788	0.0301	1.215193561076927	0.5921715669653453	0.129	1.276613885150656	0.5022191655880677	0.023	1.3021689904670821	0.4578179862062443	0.2179	1.3134701799826898	0.46806905202527943	0.1804	1.2851434308436651	0.48805849438227644	-0.0119	1.0343428629650326	0.8369682867384347	0.0008	1.0063423173162693	0.8846917713651163	0.0655	1.0347134716390656	0.833183448995537	0.1076	0.9968999315816884	0.8017827347856755	-0.01275	1.0332473594524945	0.7022821340675367	0.0702	1.0666062639033038	0.6204904933016957	0.1076	1.0848332583153466	0.8570634506407118	-0.01275	1.1603576150696036	0.7759252482239757	0.0702	1.207615319415619	0.6983443171114122	0.1076
4	0.13339491916859123	1.1194167699413289	0.68203324664741	0.0301	1.0885370555128215	0.6683041177219756	0.0301	1.1562990572821923	0.5564329898703902	0.129	1.2142522256805706	0.4651353688536286	0.023	1.235854884829455	0.42087915060290654	0.2179	1.2199570202073653	0.4168486858763859	0.1804	1.2311426858113976	0.45183903419193094	-0.0119	1.144182821899648	0.6997283493921271	0.0301	1.2147523839858898	0.5919893503007515	0.129	1.2763060471828458	0.5022438185190136	0.023	1.302478601736334	0.45732194248801333	0.2179	1.3137913811946011	0.4677131605357658	0.1804	1.284426052453676	0.4880613302051077	-0.0119	1.0346737443875789	0.8357583081587784	0.0008	1.0059829164903995	0.882890217112071	0.0655	1.033841344221293	0.8326404990437843	0.1076	0.9963314960813436	0.8011803232746607	-0.01275	1.0327166107207162	0.7024992815191075	0.0702	1.0652185410308608	0.6207151818619896	0.1076	1.0846688984219228	0.8569141176877582	-0.01275	1.1596693022601487	0.775723275645721	0.0702	1.2075673080377367	0.697164139007993	0.1076
5	0.16674364896073904	1.1185502084445755	0.682819757977492	0.0301	1.087302094371988	0.6684181037498577	0.0301	1.1556251399042667	0.5561530028530369	0.129	1.2144278333521468	0.46510412636079135	0.023	1.2357564383559996	0.42003943725836945	0.2179	1.2197181647477	0.4165844651556381	0.1804	1.2312762504381956	0.4523848191622127	-0.0119	1.1434001883190728	0.6998822031579793	0.0301	1.21384050538725	0.5915543087125338	0.129	1.2761325902898935	0.5023994311054036	0.023	1.3024853208435607	0.45665453829036506	0.2179	1.3142338549590031	0.4677136760299624	0.1804	1.28324933151254	0.48754281506642	-0.0119	1.0345171791066248	0.8347955863770544	0.0008	1.0047924030727748	0.8819258801462615	0.0655	1.032582620626661	0.8314993315374685	0.1076	0.995752326535554	0.8005450022606583	-0.01275	1.0324891497298365	0.7022298674833226	0.0702	1.0642071993593016	0.6212015600496029	0.1076	1.083813119416303	0.8565402993973137	-0.01275	1.1594806998611487	0.7759215495184903	0.0702	1.20772704619712	0.6967863650234051	0.1076
6	0.20009237875288682	1.1184826376330719	0.6828797278629833	0.0301	1.0871793426817253	0.6678368491608655	0.0301	1.1556509640155797	0.5556401816584688	0.129	1.214860962396086	0.4643900256707778	0.023	1.235876011677739	0.419584697179909	0.2179	1.2194122310637014	0.4161527176156885	0.1804	1.2315507698753239	0.45297940261061614	-0.0119	1.1432545979896378	0.6998332049996419	0.0301	1.2130224691113898	0.5910311386975183	0.129	1.2764260339525622	0.5021148627878087	0.023	1.3025165169293058	0.4560537553211064	0.2179	1.3150874750026422	0.46807613441628826	0.1804	1.2823332739356064	0.48696716345995594	-0.0119	1.0338743033165156	0.8345256059518833	0.0008	1.003560580179756	0.8814006584114648	0.0655	1.0316012994544295	0.8299226959937109	0.1076	0.9954200881109168	0.8002785518612613	-0.01275	1.0324430491439571	0.7016448289608979	0.0702	1.063795701449808	0.621889958432474	0.1076	1.0826156731684564	0.8561399544268227	-0.01275	1.159430874477163	0.7762725998109761	0.0702	1.2075381317363925	0.6969952582732868	0.1076
